<?xml version="1.0" encoding="UTF-8" standalone="no"?>
<svg
   width="1050"
   height="320"
   overflow="hidden"
   version="1.1"
   id="svg1390"
   sodipodi:docname="Figure1.svg"
   inkscape:version="1.1 (c68e22c387, 2021-05-23)"
   xmlns:inkscape="http://www.inkscape.org/namespaces/inkscape"
   xmlns:sodipodi="http://sodipodi.sourceforge.net/DTD/sodipodi-0.dtd"
   xmlns="http://www.w3.org/2000/svg"
   xmlns:svg="http://www.w3.org/2000/svg">
  <sodipodi:namedview
     id="namedview1392"
     pagecolor="#ffffff"
     bordercolor="#666666"
     borderopacity="1.0"
     inkscape:pageshadow="2"
     inkscape:pageopacity="0.0"
     inkscape:pagecheckerboard="0"
     showgrid="false"
     inkscape:zoom="1.409375"
     inkscape:cx="246.20843"
     inkscape:cy="147.58315"
     inkscape:window-width="2560"
     inkscape:window-height="1369"
     inkscape:window-x="-8"
     inkscape:window-y="-8"
     inkscape:window-maximized="1"
     inkscape:current-layer="svg1390" />
  <defs
     id="defs1112">
    <clipPath
       id="clip0">
      <rect
         x="0"
         y="0"
         width="1280"
         height="720"
         id="rect1109" />
    </clipPath>
  </defs>
  <g
     clip-path="url(#clip0)"
     id="g1388"
     transform="translate(-136.4669,-193.69692)">
    <path
       d="m 174.5,235.046 c 0,-9.138 7.408,-16.546 16.546,-16.546 h 250.908 c 9.138,0 16.546,7.408 16.546,16.546 v 208.908 c 0,9.138 -7.408,16.546 -16.546,16.546 H 191.046 c -9.138,0 -16.546,-7.408 -16.546,-16.546 z"
       stroke="#767171"
       stroke-width="1.33333"
       stroke-miterlimit="8"
       stroke-dasharray="5.33333, 4"
       fill="#ffffff"
       fill-rule="evenodd"
       id="path1116" />
    <path
       d="m 213,388.5 c 0,-13.531 10.969,-24.5 24.5,-24.5 13.531,0 24.5,10.969 24.5,24.5 0,13.531 -10.969,24.5 -24.5,24.5 -13.531,0 -24.5,-10.969 -24.5,-24.5 z"
       stroke="#000000"
       stroke-width="2"
       stroke-miterlimit="8"
       fill="#b2b2ff"
       fill-rule="evenodd"
       id="path1118" />
    <text
       font-family="'Cambria Math', 'Cambria Math_MSFontService', sans-serif"
       font-weight="400"
       font-size="24px"
       transform="translate(228.437,394)"
       id="text1120">ğ‘¥</text>
    <text
       font-family="'Cambria Math', 'Cambria Math_MSFontService', sans-serif"
       font-weight="400"
       font-size="18px"
       transform="translate(241.037,399)"
       id="text1122">2</text>
    <path
       d="m 365,388.5 c 0,-13.531 10.745,-24.5 24,-24.5 13.255,0 24,10.969 24,24.5 0,13.531 -10.745,24.5 -24,24.5 -13.255,0 -24,-10.969 -24,-24.5 z"
       stroke="#000000"
       stroke-width="2"
       stroke-miterlimit="8"
       fill="#b2b2ff"
       fill-rule="evenodd"
       id="path1124" />
    <path
       d="m 288,276.5 c 0,-13.531 10.969,-24.5 24.5,-24.5 13.531,0 24.5,10.969 24.5,24.5 0,13.531 -10.969,24.5 -24.5,24.5 -13.531,0 -24.5,-10.969 -24.5,-24.5 z"
       stroke="#000000"
       stroke-width="2"
       stroke-miterlimit="8"
       fill="#b2b2ff"
       fill-rule="evenodd"
       id="path1126" />
    <text
       font-family="'Cambria Math', 'Cambria Math_MSFontService', sans-serif"
       font-weight="400"
       font-size="24px"
       transform="translate(304.212,281)"
       id="text1128">ğ‘¥</text>
    <text
       font-family="'Cambria Math', 'Cambria Math_MSFontService', sans-serif"
       font-weight="400"
       font-size="18px"
       transform="translate(316.258,286)"
       id="text1130">1</text>
    <text
       font-family="'Cambria Math', 'Cambria Math_MSFontService', sans-serif"
       font-weight="400"
       font-size="24px"
       transform="translate(377.779,394)"
       id="text1132">ğ‘¥</text>
    <text
       font-family="'Cambria Math', 'Cambria Math_MSFontService', sans-serif"
       font-weight="400"
       font-size="18px"
       transform="translate(390.379,399)"
       id="text1134">3</text>
    <path
       d="m 503.5,235.046 c 0,-9.138 7.408,-16.546 16.546,-16.546 h 615.904 c 9.14,0 16.55,7.408 16.55,16.546 v 208.908 c 0,9.138 -7.41,16.546 -16.55,16.546 H 520.046 c -9.138,0 -16.546,-7.408 -16.546,-16.546 z"
       stroke="#767171"
       stroke-width="1.33333"
       stroke-miterlimit="8"
       fill="#ffffff"
       fill-rule="evenodd"
       id="path1136" />
    <path
       d="m 515,249.5 c 0,-13.531 10.745,-24.5 24,-24.5 13.255,0 24,10.969 24,24.5 0,13.531 -10.745,24.5 -24,24.5 -13.255,0 -24,-10.969 -24,-24.5 z"
       stroke="#000000"
       stroke-width="2"
       stroke-miterlimit="8"
       fill="#ffffff"
       fill-rule="evenodd"
       id="path1138" />
    <path
       d="m 1001,249.5 c 0,-13.531 10.97,-24.5 24.5,-24.5 13.53,0 24.5,10.969 24.5,24.5 0,13.531 -10.97,24.5 -24.5,24.5 -13.53,0 -24.5,-10.969 -24.5,-24.5 z"
       stroke="#000000"
       stroke-width="2"
       stroke-miterlimit="8"
       fill="#c1c1ff"
       fill-rule="evenodd"
       id="path1140" />
    <path
       d="m 1086,249.5 c 0,-13.531 10.97,-24.5 24.5,-24.5 13.53,0 24.5,10.969 24.5,24.5 0,13.531 -10.97,24.5 -24.5,24.5 -13.53,0 -24.5,-10.969 -24.5,-24.5 z"
       stroke="#000000"
       stroke-width="2"
       stroke-miterlimit="8"
       fill="#b2b2ff"
       fill-rule="evenodd"
       id="path1142" />
    <path
       d="m 515,334.5 c 0,-13.531 10.745,-24.5 24,-24.5 13.255,0 24,10.969 24,24.5 0,13.531 -10.745,24.5 -24,24.5 -13.255,0 -24,-10.969 -24,-24.5 z"
       stroke="#000000"
       stroke-width="2"
       stroke-miterlimit="8"
       fill="#ffffff"
       fill-rule="evenodd"
       id="path1144" />
    <path
       d="m 1001,333.5 c 0,-13.531 10.97,-24.5 24.5,-24.5 13.53,0 24.5,10.969 24.5,24.5 0,13.531 -10.97,24.5 -24.5,24.5 -13.53,0 -24.5,-10.969 -24.5,-24.5 z"
       stroke="#000000"
       stroke-width="2"
       stroke-miterlimit="8"
       fill="#c1c1ff"
       fill-rule="evenodd"
       id="path1146" />
    <path
       d="m 1085,333.5 c 0,-13.531 10.97,-24.5 24.5,-24.5 13.53,0 24.5,10.969 24.5,24.5 0,13.531 -10.97,24.5 -24.5,24.5 -13.53,0 -24.5,-10.969 -24.5,-24.5 z"
       stroke="#000000"
       stroke-width="2"
       stroke-miterlimit="8"
       fill="#b2b2ff"
       fill-rule="evenodd"
       id="path1148" />
    <path
       d="m 515,426.5 c 0,-13.531 10.745,-24.5 24,-24.5 13.255,0 24,10.969 24,24.5 0,13.531 -10.745,24.5 -24,24.5 -13.255,0 -24,-10.969 -24,-24.5 z"
       stroke="#000000"
       stroke-width="2"
       stroke-miterlimit="8"
       fill="#ffffff"
       fill-rule="evenodd"
       id="path1150" />
    <path
       d="m 1001,425.5 c 0,-13.531 10.97,-24.5 24.5,-24.5 13.53,0 24.5,10.969 24.5,24.5 0,13.531 -10.97,24.5 -24.5,24.5 -13.53,0 -24.5,-10.969 -24.5,-24.5 z"
       stroke="#000000"
       stroke-width="2"
       stroke-miterlimit="8"
       fill="#c1c1ff"
       fill-rule="evenodd"
       id="path1152" />
    <path
       d="m 1086,425.5 c 0,-13.531 10.97,-24.5 24.5,-24.5 13.53,0 24.5,10.969 24.5,24.5 0,13.531 -10.97,24.5 -24.5,24.5 -13.53,0 -24.5,-10.969 -24.5,-24.5 z"
       stroke="#000000"
       stroke-width="2"
       stroke-miterlimit="8"
       fill="#b2b2ff"
       fill-rule="evenodd"
       id="path1154" />
    <text
       font-family="'Cambria Math', 'Cambria Math_MSFontService', sans-serif"
       font-weight="400"
       font-size="19px"
       transform="translate(524.719,257)"
       id="text1156">ğ‘¥</text>
    <text
       font-family="'Cambria Math', 'Cambria Math_MSFontService', sans-serif"
       font-weight="400"
       font-size="14px"
       transform="translate(534.105,263)"
       id="text1158">1</text>
    <text
       font-family="'Cambria Math', 'Cambria Math_MSFontService', sans-serif"
       font-weight="400"
       font-size="14px"
       transform="translate(535.739,248)"
       id="text1160">ğ‘¡</text>
    <text
       font-family="'Cambria Math', 'Cambria Math_MSFontService', sans-serif"
       font-weight="400"
       font-size="14px"
       transform="translate(541.739,248)"
       id="text1162">-</text>
    <text
       font-family="'Cambria Math', 'Cambria Math_MSFontService', sans-serif"
       font-weight="400"
       font-size="14px"
       transform="translate(546.239,248)"
       id="text1164">ğ‘</text>
    <text
       font-family="'Cambria Math', 'Cambria Math_MSFontService', sans-serif"
       font-weight="400"
       font-size="19px"
       transform="translate(523.55,343)"
       id="text1166">ğ‘¥</text>
    <text
       font-family="'Cambria Math', 'Cambria Math_MSFontService', sans-serif"
       font-weight="400"
       font-size="14px"
       transform="translate(533.37,348)"
       id="text1168">2</text>
    <text
       font-family="'Cambria Math', 'Cambria Math_MSFontService', sans-serif"
       font-weight="400"
       font-size="14px"
       transform="translate(534.57,333)"
       id="text1170">ğ‘¡</text>
    <text
       font-family="'Cambria Math', 'Cambria Math_MSFontService', sans-serif"
       font-weight="400"
       font-size="14px"
       transform="translate(540.57,333)"
       id="text1172">-</text>
    <text
       font-family="'Cambria Math', 'Cambria Math_MSFontService', sans-serif"
       font-weight="400"
       font-size="14px"
       transform="translate(545.07,333)"
       id="text1174">ğ‘</text>
    <text
       font-family="'Cambria Math', 'Cambria Math_MSFontService', sans-serif"
       font-weight="400"
       font-size="19px"
       transform="translate(524.719,434)"
       id="text1176">ğ‘¥</text>
    <text
       font-family="'Cambria Math', 'Cambria Math_MSFontService', sans-serif"
       font-weight="400"
       font-size="14px"
       transform="translate(534.539,439)"
       id="text1178">3</text>
    <text
       font-family="'Cambria Math', 'Cambria Math_MSFontService', sans-serif"
       font-weight="400"
       font-size="14px"
       transform="translate(535.739,424)"
       id="text1180">ğ‘¡</text>
    <text
       font-family="'Cambria Math', 'Cambria Math_MSFontService', sans-serif"
       font-weight="400"
       font-size="14px"
       transform="translate(541.739,424)"
       id="text1182">-</text>
    <text
       font-family="'Cambria Math', 'Cambria Math_MSFontService', sans-serif"
       font-weight="400"
       font-size="14px"
       transform="translate(546.239,424)"
       id="text1184">ğ‘</text>
    <path
       d="m 867.5,249.833 h 43.14 v 1.334 H 867.5 Z m 41.806,-3.333 8,4 -8,4 z"
       id="path1186" />
    <path
       d="m 917,249.5 c 0,-13.531 10.969,-24.5 24.5,-24.5 13.531,0 24.5,10.969 24.5,24.5 0,13.531 -10.969,24.5 -24.5,24.5 -13.531,0 -24.5,-10.969 -24.5,-24.5 z"
       stroke="#000000"
       stroke-width="2"
       stroke-miterlimit="8"
       fill="#d9d9ff"
       fill-rule="evenodd"
       id="path1188" />
    <path
       d="m 917,334.5 c 0,-13.531 10.969,-24.5 24.5,-24.5 13.531,0 24.5,10.969 24.5,24.5 0,13.531 -10.969,24.5 -24.5,24.5 -13.531,0 -24.5,-10.969 -24.5,-24.5 z"
       stroke="#000000"
       stroke-width="2"
       stroke-miterlimit="8"
       fill="#d9d9ff"
       fill-rule="evenodd"
       id="path1190" />
    <path
       d="m 917,426.5 c 0,-13.531 10.969,-24.5 24.5,-24.5 13.531,0 24.5,10.969 24.5,24.5 0,13.531 -10.969,24.5 -24.5,24.5 -13.531,0 -24.5,-10.969 -24.5,-24.5 z"
       stroke="#000000"
       stroke-width="2"
       stroke-miterlimit="8"
       fill="#d9d9ff"
       fill-rule="evenodd"
       id="path1192" />
    <path
       d="M 0.00369468,-0.666656 28.4773,-0.508853 28.4699,0.82446 -0.00369468,0.666656 Z M 27.1624,-3.84952 35.1402,0.194751 27.1181,4.15035 Z"
       transform="matrix(1,0,0,-1,966.5,249.695)"
       id="path1194" />
    <path
       d="M 9.45844e-4,-0.666666 29.7416,-0.624471 29.7397,0.708861 -9.45844e-4,0.666666 Z M 28.413,-3.95969 36.4073,0.0516535 28.4017,4.0403 Z"
       transform="matrix(1,0,0,-1,1050.5,249.552)"
       id="path1196" />
    <path
       d="m 563.5,250.833 h 43.14 v 1.334 H 563.5 Z m 41.806,-3.333 8,4 -8,4 z"
       id="path1198" />
    <path
       d="M 0.00989872,-0.666593 28.8634,-0.238126 28.8436,1.09506 -0.00989872,0.666593 Z M 27.5798,-3.59089 35.5195,0.527454 27.461,4.40823 Z"
       transform="matrix(1,0,0,-1,966.5,335.027)"
       id="path1200" />
    <path
       d="M 9.69487e-4,-0.666666 28.8538,-0.624707 28.8518,0.708625 -9.69487e-4,0.666666 Z M 27.5253,-3.95998 35.5195,0.0516535 27.5137,4.04002 Z"
       transform="matrix(1,0,0,-1,1050.5,334.552)"
       id="path1202" />
    <text
       font-family="'Cambria Math', 'Cambria Math_MSFontService', sans-serif"
       font-weight="400"
       font-size="19px"
       transform="translate(1102.49,255)"
       id="text1204">ğ‘¥</text>
    <text
       font-family="'Cambria Math', 'Cambria Math_MSFontService', sans-serif"
       font-weight="400"
       font-size="14px"
       transform="translate(1111.87,259)"
       id="text1206">1</text>
    <text
       font-family="'Cambria Math', 'Cambria Math_MSFontService', sans-serif"
       font-weight="400"
       font-size="14px"
       transform="translate(1113.51,248)"
       id="text1208">ğ‘¡</text>
    <text
       font-family="'Cambria Math', 'Cambria Math_MSFontService', sans-serif"
       font-weight="400"
       font-size="19px"
       transform="translate(1100.33,339)"
       id="text1210">ğ‘¥</text>
    <text
       font-family="'Cambria Math', 'Cambria Math_MSFontService', sans-serif"
       font-weight="400"
       font-size="14px"
       transform="translate(1110.15,343)"
       id="text1212">2</text>
    <text
       font-family="'Cambria Math', 'Cambria Math_MSFontService', sans-serif"
       font-weight="400"
       font-size="14px"
       transform="translate(1111.35,332)"
       id="text1214">ğ‘¡</text>
    <text
       font-family="'Cambria Math', 'Cambria Math_MSFontService', sans-serif"
       font-weight="400"
       font-size="19px"
       transform="translate(1101.23,431)"
       id="text1216">ğ‘¥</text>
    <text
       font-family="'Cambria Math', 'Cambria Math_MSFontService', sans-serif"
       font-weight="400"
       font-size="14px"
       transform="translate(1111.05,435)"
       id="text1218">3</text>
    <text
       font-family="'Cambria Math', 'Cambria Math_MSFontService', sans-serif"
       font-weight="400"
       font-size="14px"
       transform="translate(1112.25,424)"
       id="text1220">ğ‘¡</text>
    <text
       font-family="'Cambria Math', 'Cambria Math_MSFontService', sans-serif"
       font-weight="400"
       font-size="19px"
       transform="translate(1013.15,255)"
       id="text1222">ğ‘¥</text>
    <text
       font-family="'Cambria Math', 'Cambria Math_MSFontService', sans-serif"
       font-weight="400"
       font-size="14px"
       transform="translate(1022.54,259)"
       id="text1224">1</text>
    <text
       font-family="'Cambria Math', 'Cambria Math_MSFontService', sans-serif"
       font-weight="400"
       font-size="14px"
       transform="translate(1024.17,247)"
       id="text1226">ğ‘¡</text>
    <text
       font-family="'Cambria Math', 'Cambria Math_MSFontService', sans-serif"
       font-weight="400"
       font-size="14px"
       transform="translate(1030.17,247)"
       id="text1228">-</text>
    <text
       font-family="'Cambria Math', 'Cambria Math_MSFontService', sans-serif"
       font-weight="400"
       font-size="14px"
       transform="translate(1034.67,247)"
       id="text1230">1</text>
    <path
       d="M 0.224224,-0.627828 2.1154,0.0475926 4.02791,1.9601 4.58952,2.88274 3.45059,3.576 2.93053,2.72163 3.0286,2.8464 1.2786,1.0964 1.52578,1.25283 -0.224224,0.627828 Z M 6.51381,6.48236 7.56057,8.88603 8.43683,11.5148 7.17192,11.9365 6.30504,9.33582 6.32628,9.39118 5.29137,7.01472 Z m 3.11996,8.88334 1.13753,4.0951 0.2502,1.0841 -1.29921,0.2998 -0.24688,-1.0698 0.00724,0.0285 -1.13357,-4.0808 z m 2.28713,9.0768 0.3564,1.5443 0.7148,3.7042 -1.3091,0.2527 -0.7126,-3.6924 0.005,0.0236 -0.3537,-1.5326 z m 1.817,9.1998 0.8426,5.2664 -1.3166,0.2106 -0.8426,-5.2663 z m 1.431,9.2389 0.7153,5.2851 -1.3213,0.1788 -0.7153,-5.2851 z m 1.1922,9.2708 0.6013,5.2994 -1.3248,0.1503 -0.6014,-5.2993 z m 0.9937,9.2921 0.5057,5.3093 -1.3273,0.1264 -0.5057,-5.3093 z m 0.773,9.3222 0.3295,5.3232 -1.3308,0.0823 -0.3295,-5.3231 z m 0.5766,9.3155 0.3294,5.3232 -1.3308,0.0823 -0.3294,-5.3231 z m 0.463,9.3468 0.1174,5.3321 -1.333,0.0293 -0.1174,-5.332 z m 0.2054,9.3311 0.1174,5.3323 -1.333,0.029 -0.1174,-5.3319 z m 0.2054,9.3313 0.1174,5.332 -1.333,0.029 -0.1174,-5.332 z m 0.2054,9.331 0.1174,5.332 -1.333,0.029 -0.1174,-5.332 z m 0.2223,9.304 0.3284,5.323 -1.3308,0.082 -0.3284,-5.323 z m 0.5747,9.315 0.3284,5.324 -1.3308,0.082 -0.3284,-5.323 z m 0.5747,9.316 0.0101,0.164 -0.0013,-0.017 0.4553,5.148 -1.3282,0.118 -0.4561,-5.158 -0.0106,-0.173 z m 0.8165,9.28 0.0048,0.054 -0.0017,-0.017 0.5993,5.245 -1.3247,0.151 -0.6003,-5.253 -0.0056,-0.063 z m 1.0674,9.236 0.7542,5.279 -1.3199,0.189 -0.7543,-5.28 z m 1.3416,9.225 0.8426,5.266 -1.3166,0.211 -0.8426,-5.267 z m 1.5557,9.181 0.8433,4.408 -0.0042,-0.02 0.1842,0.825 -1.3013,0.291 -0.1864,-0.835 -0.8452,-4.419 z m 1.895,9.117 0.3816,1.709 -0.0078,-0.032 0.949,3.455 -1.2857,0.353 -0.9532,-3.47 -0.3851,-1.725 z m 2.4639,8.924 1.0862,3.217 -0.0475,-0.108 0.9342,1.698 -1.1681,0.642 -0.9629,-1.75 -1.1052,-3.273 z m 4.7979,3.962 2.54,8.576 -8.3848,-3.114 z"
       fill="#cbcbcb"
       transform="matrix(0,1,1,0,539.5,274.5)"
       id="path1232" />
    <path
       d="m 538.853,402.182 0.278,-1.112 0.732,-1.097 1.158,-1.09 1.475,-0.984 0.74,1.11 -1.429,0.952 0.087,-0.069 -1.062,1 0.098,-0.116 -0.625,0.938 0.092,-0.208 -0.25,1 z m 7.37,-6.049 0.542,-0.226 4.541,-1.531 0.426,1.264 -4.519,1.523 0.043,-0.016 -0.52,0.217 z m 8.973,-2.86 4.086,-1.078 1.113,-0.239 0.28,1.303 -1.097,0.237 0.029,-0.007 -4.071,1.073 z m 9.109,-2.159 3.13,-0.674 2.125,-0.374 0.23,1.313 -2.112,0.372 0.025,-0.005 -3.117,0.671 z m 9.194,-1.74 3.206,-0.563 2.07,-0.316 0.201,1.319 -2.063,0.314 0.015,-0.002 -3.198,0.561 z m 9.23,-1.481 4.242,-0.647 1.053,-0.13 0.164,1.323 -1.044,0.129 0.019,-0.003 -4.233,0.646 z m 9.265,-1.268 5.293,-0.654 0.164,1.323 -5.294,0.654 z m 9.281,-1.089 5.304,-0.558 0.14,1.326 -5.304,0.558 z m 9.293,-0.969 5.313,-0.476 0.118,1.328 -5.312,0.476 z m 9.297,-0.833 2.707,-0.242 2.62,-0.187 0.095,1.33 -2.614,0.186 0.012,-0.001 -2.701,0.242 z m 9.317,-0.714 5.32,-0.38 0.095,1.33 -5.32,0.38 z m 9.323,-0.621 5.326,-0.295 0.073,1.332 -5.325,0.294 z m 9.32,-0.515 1.454,-0.081 3.88,-0.174 0.059,1.332 -3.876,0.174 h 0.007 l -1.451,0.08 z m 9.33,-0.434 5.328,-0.239 0.059,1.332 -5.328,0.239 z m 9.346,-0.323 5.333,-0.082 0.02,1.333 -5.332,0.082 z m 9.332,-0.144 5.333,-0.082 0.021,1.333 -5.333,0.082 z m 9.333,-0.144 5.332,-0.082 0.021,1.333 -5.333,0.082 z m 9.33,-0.15 5.333,-0.094 0.023,1.333 -5.332,0.094 z m 9.332,-0.164 5.333,-0.094 0.023,1.333 -5.332,0.094 z m 9.332,-0.165 5.332,-0.094 0.024,1.333 -5.333,0.094 z m 9.315,-0.221 5.329,-0.216 0.054,1.332 -5.329,0.216 z m 9.326,-0.378 2.047,-0.083 h -0.01 l 3.279,-0.181 0.074,1.331 -3.284,0.182 -2.052,0.083 z m 9.31,-0.485 5.326,-0.294 0.073,1.331 -5.325,0.294 z m 9.306,-0.563 5.319,-0.38 0.095,1.33 -5.319,0.38 z m 9.309,-0.665 0.789,-0.057 -0.012,0.001 4.525,-0.405 0.118,1.328 -4.53,0.406 -0.795,0.057 z m 9.286,-0.818 4.054,-0.363 -0.01,10e-4 1.256,-0.131 0.139,1.326 -1.261,0.132 -4.06,0.364 z m 9.278,-0.91 5.304,-0.555 0.139,1.326 -5.304,0.555 z m 9.259,-1.032 5.29,-0.684 0.171,1.323 -5.29,0.683 z m 9.243,-1.207 5.277,-0.777 0.194,1.319 -5.276,0.777 z m 9.234,-1.36 0.252,-0.037 -0.023,0.004 4.997,-0.911 0.239,1.311 -5.008,0.914 -0.263,0.039 z m 9.161,-1.662 0.318,-0.058 -0.015,0.003 4.904,-1.019 0.271,1.305 -4.912,1.021 -0.327,0.059 z m 9.081,-1.916 5.157,-1.36 0.34,1.29 -5.157,1.359 z m 8.925,-2.556 2.782,-0.937 -0.131,0.06 2.055,-1.236 0.687,1.143 -2.117,1.273 -2.85,0.961 z m 1.787,-3.925 8.679,-2.162 -3.478,8.24 z"
       fill="#cbcbcb"
       id="path1234" />
    <path
       d="M 0.0976991,-0.659469 1.86912,-0.397036 3.63551,0.350281 5.22369,1.44979 4.46474,2.54605 2.93303,1.48563 3.05274,1.55148 1.42774,0.863978 1.5898,0.909469 l -1.6874991,-0.25 z M 8.01851,4.59986 10.0727,7.46715 10.9276,9.17704 9.73506,9.77333 8.90372,8.11064 8.95806,8.20076 6.93462,5.37638 Z m 4.69799,8.15494 0.0845,0.1691 1.7806,4.9085 -1.2534,0.4546 -1.7674,-4.8722 0.0304,0.0708 -0.0673,-0.1346 z m 3.0037,8.9807 1.1847,4.8236 0.0627,0.4248 -1.319,0.1946 -0.0581,-0.3937 0.0121,0.0617 -1.1772,-4.7929 z m 1.8313,9.2055 0.4878,3.3068 0.0979,2.0544 -1.3319,0.0635 -0.0962,-2.0215 0.0064,0.0656 -0.4831,-3.2742 z m 0.7759,9.3567 0.0885,1.8581 0.1652,3.4692 -1.3318,0.0634 -0.1652,-3.4692 -0.0885,-1.8581 z m 0.444,9.3228 0.0195,0.4103 -0.0065,-0.0664 0.7243,4.869 -1.3188,0.1962 -0.7292,-4.902 -0.0212,-0.4437 z m 1.4306,9.0855 1.2721,5.1794 -1.2948,0.318 -1.2722,-5.1794 z m 2.5161,8.9089 1.1606,3.2882 -0.031,-0.0735 0.818,1.6552 -1.1953,0.5908 -0.8358,-1.691 -1.1738,-3.3259 z m 3.72,8.4558 0.0971,0.1964 -0.0966,-0.1443 3.3734,3.8439 -1.0021,0.8794 -3.4312,-3.9097 -0.1359,-0.2749 z m 4.1656,0.6424 4.7855,7.5564 -8.9164,-0.7055 z"
       fill="#cbcbcb"
       transform="matrix(0,1,1,0,941.5,274.5)"
       id="path1236" />
    <text
       font-family="'Cambria Math', 'Cambria Math_MSFontService', sans-serif"
       font-weight="400"
       font-size="24px"
       transform="translate(634.733,258)"
       id="text1238">â‹¯</text>
    <text
       font-family="'Cambria Math', 'Cambria Math_MSFontService', sans-serif"
       font-weight="400"
       font-size="24px"
       transform="translate(635.658,345)"
       id="text1240">â‹¯</text>
    <text
       font-family="'Cambria Math', 'Cambria Math_MSFontService', sans-serif"
       font-weight="400"
       font-size="24px"
       transform="translate(637.25,439)"
       id="text1242">â‹¯</text>
    <text
       font-family="'Cambria Math', 'Cambria Math_MSFontService', sans-serif"
       font-weight="400"
       font-size="19px"
       transform="translate(1014.53,340)"
       id="text1244">ğ‘¥</text>
    <text
       font-family="'Cambria Math', 'Cambria Math_MSFontService', sans-serif"
       font-weight="400"
       font-size="14px"
       transform="translate(1024.35,344)"
       id="text1246">2</text>
    <text
       font-family="'Cambria Math', 'Cambria Math_MSFontService', sans-serif"
       font-weight="400"
       font-size="14px"
       transform="translate(1025.55,333)"
       id="text1248">ğ‘¡</text>
    <text
       font-family="'Cambria Math', 'Cambria Math_MSFontService', sans-serif"
       font-weight="400"
       font-size="14px"
       transform="translate(1031.55,333)"
       id="text1250">-</text>
    <text
       font-family="'Cambria Math', 'Cambria Math_MSFontService', sans-serif"
       font-weight="400"
       font-size="14px"
       transform="translate(1036.05,333)"
       id="text1252">1</text>
    <text
       font-family="'Cambria Math', 'Cambria Math_MSFontService', sans-serif"
       font-weight="400"
       font-size="19px"
       transform="translate(1013.43,432)"
       id="text1254">ğ‘¥</text>
    <text
       font-family="'Cambria Math', 'Cambria Math_MSFontService', sans-serif"
       font-weight="400"
       font-size="14px"
       transform="translate(1023.25,436)"
       id="text1256">3</text>
    <text
       font-family="'Cambria Math', 'Cambria Math_MSFontService', sans-serif"
       font-weight="400"
       font-size="14px"
       transform="translate(1024.45,424)"
       id="text1258">ğ‘¡</text>
    <text
       font-family="'Cambria Math', 'Cambria Math_MSFontService', sans-serif"
       font-weight="400"
       font-size="14px"
       transform="translate(1030.45,424)"
       id="text1260">-</text>
    <text
       font-family="'Cambria Math', 'Cambria Math_MSFontService', sans-serif"
       font-weight="400"
       font-size="14px"
       transform="translate(1034.95,424)"
       id="text1262">1</text>
    <text
       font-family="'Cambria Math', 'Cambria Math_MSFontService', sans-serif"
       font-weight="400"
       font-size="19px"
       transform="translate(927.677,341)"
       id="text1264">ğ‘¥</text>
    <text
       font-family="'Cambria Math', 'Cambria Math_MSFontService', sans-serif"
       font-weight="400"
       font-size="14px"
       transform="translate(937.497,346)"
       id="text1266">2</text>
    <text
       font-family="'Cambria Math', 'Cambria Math_MSFontService', sans-serif"
       font-weight="400"
       font-size="14px"
       transform="translate(938.697,334)"
       id="text1268">ğ‘¡</text>
    <text
       font-family="'Cambria Math', 'Cambria Math_MSFontService', sans-serif"
       font-weight="400"
       font-size="14px"
       transform="translate(944.697,334)"
       id="text1270">-</text>
    <text
       font-family="'Cambria Math', 'Cambria Math_MSFontService', sans-serif"
       font-weight="400"
       font-size="14px"
       transform="translate(949.197,334)"
       id="text1272">2</text>
    <text
       font-family="'Cambria Math', 'Cambria Math_MSFontService', sans-serif"
       font-weight="400"
       font-size="19px"
       transform="translate(929.507,434)"
       id="text1274">ğ‘¥</text>
    <text
       font-family="'Cambria Math', 'Cambria Math_MSFontService', sans-serif"
       font-weight="400"
       font-size="14px"
       transform="translate(939.327,438)"
       id="text1276">3</text>
    <text
       font-family="'Cambria Math', 'Cambria Math_MSFontService', sans-serif"
       font-weight="400"
       font-size="14px"
       transform="translate(940.527,427)"
       id="text1278">ğ‘¡</text>
    <text
       font-family="'Cambria Math', 'Cambria Math_MSFontService', sans-serif"
       font-weight="400"
       font-size="14px"
       transform="translate(946.527,427)"
       id="text1280">-</text>
    <text
       font-family="'Cambria Math', 'Cambria Math_MSFontService', sans-serif"
       font-weight="400"
       font-size="14px"
       transform="translate(951.027,427)"
       id="text1282">2</text>
    <text
       font-family="'Cambria Math', 'Cambria Math_MSFontService', sans-serif"
       font-weight="400"
       font-size="19px"
       transform="translate(927.514,255)"
       id="text1284">ğ‘¥</text>
    <text
       font-family="'Cambria Math', 'Cambria Math_MSFontService', sans-serif"
       font-weight="400"
       font-size="14px"
       transform="translate(936.901,259)"
       id="text1286">1</text>
    <text
       font-family="'Cambria Math', 'Cambria Math_MSFontService', sans-serif"
       font-weight="400"
       font-size="14px"
       transform="translate(938.534,248)"
       id="text1288">ğ‘¡</text>
    <text
       font-family="'Cambria Math', 'Cambria Math_MSFontService', sans-serif"
       font-weight="400"
       font-size="14px"
       transform="translate(944.534,248)"
       id="text1290">-</text>
    <text
       font-family="'Cambria Math', 'Cambria Math_MSFontService', sans-serif"
       font-weight="400"
       font-size="14px"
       transform="translate(949.034,248)"
       id="text1292">2</text>
    <path
       d="M 0.00989872,-0.666593 28.8634,-0.238126 28.8436,1.09506 -0.00989872,0.666593 Z M 27.5798,-3.59089 35.5195,0.527454 27.461,4.40823 Z"
       transform="matrix(1,0,0,-1,1050.5,426.027)"
       id="path1294" />
    <path
       d="m 819,251.5 c 0,-13.531 10.969,-24.5 24.5,-24.5 13.531,0 24.5,10.969 24.5,24.5 0,13.531 -10.969,24.5 -24.5,24.5 -13.531,0 -24.5,-10.969 -24.5,-24.5 z"
       stroke="#000000"
       stroke-width="2"
       stroke-miterlimit="8"
       fill="#d6d6ff"
       fill-rule="evenodd"
       id="path1296" />
    <path
       d="m 819,336 c 0,-13.255 10.969,-24 24.5,-24 13.531,0 24.5,10.745 24.5,24 0,13.255 -10.969,24 -24.5,24 -13.531,0 -24.5,-10.745 -24.5,-24 z"
       stroke="#000000"
       stroke-width="2"
       stroke-miterlimit="8"
       fill="#d6d6ff"
       fill-rule="evenodd"
       id="path1298" />
    <path
       d="m 819,428.5 c 0,-13.531 10.969,-24.5 24.5,-24.5 13.531,0 24.5,10.969 24.5,24.5 0,13.531 -10.969,24.5 -24.5,24.5 -13.531,0 -24.5,-10.969 -24.5,-24.5 z"
       stroke="#000000"
       stroke-width="2"
       stroke-miterlimit="8"
       fill="#d6d6ff"
       fill-rule="evenodd"
       id="path1300" />
    <text
       font-family="'Cambria Math', 'Cambria Math_MSFontService', sans-serif"
       font-weight="400"
       font-size="19px"
       transform="translate(829.564,343)"
       id="text1302">ğ‘¥</text>
    <text
       font-family="'Cambria Math', 'Cambria Math_MSFontService', sans-serif"
       font-weight="400"
       font-size="14px"
       transform="translate(839.384,347)"
       id="text1304">2</text>
    <text
       font-family="'Cambria Math', 'Cambria Math_MSFontService', sans-serif"
       font-weight="400"
       font-size="14px"
       transform="translate(840.584,336)"
       id="text1306">ğ‘¡</text>
    <text
       font-family="'Cambria Math', 'Cambria Math_MSFontService', sans-serif"
       font-weight="400"
       font-size="14px"
       transform="translate(846.584,336)"
       id="text1308">-</text>
    <text
       font-family="'Cambria Math', 'Cambria Math_MSFontService', sans-serif"
       font-weight="400"
       font-size="14px"
       transform="translate(851.084,336)"
       id="text1310">3</text>
    <text
       font-family="'Cambria Math', 'Cambria Math_MSFontService', sans-serif"
       font-weight="400"
       font-size="19px"
       transform="translate(831.394,436)"
       id="text1312">ğ‘¥</text>
    <text
       font-family="'Cambria Math', 'Cambria Math_MSFontService', sans-serif"
       font-weight="400"
       font-size="14px"
       transform="translate(841.214,440)"
       id="text1314">3</text>
    <text
       font-family="'Cambria Math', 'Cambria Math_MSFontService', sans-serif"
       font-weight="400"
       font-size="14px"
       transform="translate(842.414,429)"
       id="text1316">ğ‘¡</text>
    <text
       font-family="'Cambria Math', 'Cambria Math_MSFontService', sans-serif"
       font-weight="400"
       font-size="14px"
       transform="translate(848.414,429)"
       id="text1318">-</text>
    <text
       font-family="'Cambria Math', 'Cambria Math_MSFontService', sans-serif"
       font-weight="400"
       font-size="14px"
       transform="translate(852.914,429)"
       id="text1320">3</text>
    <text
       font-family="'Cambria Math', 'Cambria Math_MSFontService', sans-serif"
       font-weight="400"
       font-size="19px"
       transform="translate(829.401,256)"
       id="text1322">ğ‘¥</text>
    <text
       font-family="'Cambria Math', 'Cambria Math_MSFontService', sans-serif"
       font-weight="400"
       font-size="14px"
       transform="translate(838.788,261)"
       id="text1324">1</text>
    <text
       font-family="'Cambria Math', 'Cambria Math_MSFontService', sans-serif"
       font-weight="400"
       font-size="14px"
       transform="translate(840.421,249)"
       id="text1326">ğ‘¡</text>
    <text
       font-family="'Cambria Math', 'Cambria Math_MSFontService', sans-serif"
       font-weight="400"
       font-size="14px"
       transform="translate(846.421,249)"
       id="text1328">-</text>
    <text
       font-family="'Cambria Math', 'Cambria Math_MSFontService', sans-serif"
       font-weight="400"
       font-size="14px"
       transform="translate(850.921,249)"
       id="text1330">3</text>
    <path
       d="m 727,249.5 c 0,-13.531 10.969,-24.5 24.5,-24.5 13.531,0 24.5,10.969 24.5,24.5 0,13.531 -10.969,24.5 -24.5,24.5 -13.531,0 -24.5,-10.969 -24.5,-24.5 z"
       stroke="#000000"
       stroke-width="2"
       stroke-miterlimit="8"
       fill="#f2f2ff"
       fill-rule="evenodd"
       id="path1332" />
    <path
       d="m 727,336 c 0,-13.255 10.969,-24 24.5,-24 13.531,0 24.5,10.745 24.5,24 0,13.255 -10.969,24 -24.5,24 -13.531,0 -24.5,-10.745 -24.5,-24 z"
       stroke="#000000"
       stroke-width="2"
       stroke-miterlimit="8"
       fill="#f2f2ff"
       fill-rule="evenodd"
       id="path1334" />
    <path
       d="m 727,428.5 c 0,-13.531 10.969,-24.5 24.5,-24.5 13.531,0 24.5,10.969 24.5,24.5 0,13.531 -10.969,24.5 -24.5,24.5 -13.531,0 -24.5,-10.969 -24.5,-24.5 z"
       stroke="#000000"
       stroke-width="2"
       stroke-miterlimit="8"
       fill="#f2f2ff"
       fill-rule="evenodd"
       id="path1336" />
    <text
       font-family="'Cambria Math', 'Cambria Math_MSFontService', sans-serif"
       font-weight="400"
       font-size="19px"
       transform="translate(738.263,343)"
       id="text1338">ğ‘¥</text>
    <text
       font-family="'Cambria Math', 'Cambria Math_MSFontService', sans-serif"
       font-weight="400"
       font-size="14px"
       transform="translate(748.083,347)"
       id="text1340">2</text>
    <text
       font-family="'Cambria Math', 'Cambria Math_MSFontService', sans-serif"
       font-weight="400"
       font-size="14px"
       transform="translate(749.283,336)"
       id="text1342">ğ‘¡</text>
    <text
       font-family="'Cambria Math', 'Cambria Math_MSFontService', sans-serif"
       font-weight="400"
       font-size="14px"
       transform="translate(755.283,336)"
       id="text1344">-</text>
    <text
       font-family="'Cambria Math', 'Cambria Math_MSFontService', sans-serif"
       font-weight="400"
       font-size="14px"
       transform="translate(759.783,336)"
       id="text1346">4</text>
    <text
       font-family="'Cambria Math', 'Cambria Math_MSFontService', sans-serif"
       font-weight="400"
       font-size="19px"
       transform="translate(740.093,436)"
       id="text1348">ğ‘¥</text>
    <text
       font-family="'Cambria Math', 'Cambria Math_MSFontService', sans-serif"
       font-weight="400"
       font-size="14px"
       transform="translate(749.913,440)"
       id="text1350">3</text>
    <text
       font-family="'Cambria Math', 'Cambria Math_MSFontService', sans-serif"
       font-weight="400"
       font-size="14px"
       transform="translate(751.113,429)"
       id="text1352">ğ‘¡</text>
    <text
       font-family="'Cambria Math', 'Cambria Math_MSFontService', sans-serif"
       font-weight="400"
       font-size="14px"
       transform="translate(757.113,429)"
       id="text1354">-</text>
    <text
       font-family="'Cambria Math', 'Cambria Math_MSFontService', sans-serif"
       font-weight="400"
       font-size="14px"
       transform="translate(761.613,429)"
       id="text1356">4</text>
    <text
       font-family="'Cambria Math', 'Cambria Math_MSFontService', sans-serif"
       font-weight="400"
       font-size="19px"
       transform="translate(739.234,257)"
       id="text1358">ğ‘¥</text>
    <text
       font-family="'Cambria Math', 'Cambria Math_MSFontService', sans-serif"
       font-weight="400"
       font-size="14px"
       transform="translate(748.621,261)"
       id="text1360">1</text>
    <text
       font-family="'Cambria Math', 'Cambria Math_MSFontService', sans-serif"
       font-weight="400"
       font-size="14px"
       transform="translate(750.254,250)"
       id="text1362">ğ‘¡</text>
    <text
       font-family="'Cambria Math', 'Cambria Math_MSFontService', sans-serif"
       font-weight="400"
       font-size="14px"
       transform="translate(756.254,250)"
       id="text1364">-</text>
    <text
       font-family="'Cambria Math', 'Cambria Math_MSFontService', sans-serif"
       font-weight="400"
       font-size="14px"
       transform="translate(760.754,250)"
       id="text1366">4</text>
    <path
       d="m 776.505,249.833 34.646,0.25 -0.01,1.334 -34.646,-0.25 z m 33.337,-3.092 7.971,4.057 -8.029,3.942 z"
       id="path1368" />
    <path
       d="m 679.505,249.833 34.646,0.25 -0.01,1.334 -34.646,-0.25 z m 33.337,-3.092 7.971,4.057 -8.029,3.942 z"
       id="path1370" />
    <path
       d="m 842.841,404.61 0.323,-2.197 0.862,-2.257 0.525,-0.825 1.125,0.716 -0.488,0.768 0.06,-0.12 -0.813,2.125 0.037,-0.141 -0.312,2.125 z m 4.258,-8.49 0.182,-0.2 2.241,-1.985 1.8,-1.286 0.775,1.085 -1.772,1.266 0.055,-0.044 -2.188,1.938 0.052,-0.051 -0.157,0.173 z m 7.729,-5.544 3.702,-2.037 1.117,-0.431 0.481,1.243 -1.075,0.416 0.081,-0.038 -3.664,2.015 z m 8.55,-3.911 2.664,-1.03 2.458,-0.665 0.349,1.287 -2.425,0.656 0.066,-0.021 -2.631,1.017 z m 8.984,-2.74 2.06,-0.558 3.226,-0.522 0.213,1.316 -3.192,0.517 0.068,-0.015 -2.027,0.549 z m 9.234,-1.72 1.77,-0.286 3.606,-0.198 0.073,1.331 -3.571,0.196 0.07,-0.008 -1.734,0.281 z m 9.37,-0.703 1.56,-0.085 3.766,-0.205 0.072,1.331 -3.765,0.205 -1.56,0.086 z m 9.32,-0.508 1.428,-0.077 -0.071,0.007 3.852,-0.628 0.215,1.316 -3.888,0.634 -1.464,0.08 z m 9.157,-1.342 1.012,-0.165 -0.067,0.014 4.158,-1.125 0.349,1.287 -4.191,1.134 -1.047,0.171 z m 8.964,-2.321 0.294,-0.08 -0.066,0.022 4.691,-1.813 0.48,1.243 -4.723,1.826 -0.327,0.089 z m 8.509,-3.404 4.673,-2.57 0.643,1.168 -4.673,2.57 z m 7.859,-4.744 2.228,-1.918 -0.126,0.144 1.295,-2.013 1.121,0.721 -1.347,2.095 -2.301,1.981 z m -0.115,-4.056 6.953,-5.627 0.33,8.938 z"
       fill="#cbcbcb"
       id="path1372" />
    <text
       font-family="'Times New Roman', 'Times New Roman_MSFontService', sans-serif"
       font-style="italic"
       font-weight="400"
       font-size="24px"
       transform="translate(168.783,495)"
       id="text1374">Contemporaneous relationship</text>
    <text
       font-family="'Times New Roman', 'Times New Roman_MSFontService', sans-serif"
       font-style="italic"
       font-weight="400"
       font-size="24px"
       transform="translate(726.044,495)"
       id="text1376">time</text>
    <text
       font-family="'Times New Roman', 'Times New Roman_MSFontService', sans-serif"
       font-style="italic"
       font-weight="400"
       font-size="24px"
       transform="translate(767.378,495)"
       id="text1378">-</text>
    <text
       font-family="'Times New Roman', 'Times New Roman_MSFontService', sans-serif"
       font-style="italic"
       font-weight="400"
       font-size="24px"
       transform="translate(775.378,495)"
       id="text1380">lagged</text>
    <text
       font-family="'Times New Roman', 'Times New Roman_MSFontService', sans-serif"
       font-style="italic"
       font-weight="400"
       font-size="24px"
       transform="translate(846.711,495)"
       id="text1382">relationship</text>
    <path
       d="M 0.831119,-0.556094 35.9037,51.8622 34.2414,52.9744 -0.831119,0.556094 Z M 37.6556,49.0857 l 1.1242,8.8734 -7.7732,-4.4246 z"
       transform="matrix(-1,0,0,1,289.78,303)"
       id="path1384" />
    <path
       d="m 334.831,302.444 35.073,52.418 -1.663,1.112 -35.072,-52.418 z m 36.825,49.642 1.124,8.873 -7.773,-4.425 z"
       id="path1386" />
  </g>
</svg>
